<svg width="169" height="65" viewBox="0 0 169 65" fill="none" xmlns="http://www.w3.org/2000/svg">
<g clip-path="url(#clip0_1221_4715)">
<path d="M54.4941 15.5329C56.8319 15.5329 59.1084 15.5166 61.3848 15.5581C61.6067 15.5617 61.9206 15.8882 62.0234 16.1371C62.5663 17.4305 63.0552 18.7473 63.6162 20.1958C65.7808 16.3879 69.062 14.6941 73.2108 14.7013C77.4985 14.7085 80.5001 16.8803 82.5006 20.746C82.8758 20.1814 83.1554 19.6997 83.4909 19.2632C86.1497 15.7998 89.7358 14.3279 93.9892 14.7734C98.7333 15.2713 101.677 18.2043 103.167 22.5714C103.739 24.2472 104.042 26.0907 104.067 27.8621C104.166 34.9891 104.111 42.1197 104.109 49.2484C104.109 49.3982 104.091 49.5461 104.075 49.7734H94.534V48.7452C94.534 42.6698 94.5556 36.5927 94.5141 30.5174C94.5069 29.482 94.3518 28.4123 94.0614 27.4202C93.5094 25.5424 92.2539 24.2869 90.2481 24.0758C88.1646 23.8558 86.5935 24.819 85.4859 26.5435C84.4235 28.194 84.1637 30.0664 84.1601 31.9803C84.1475 37.5451 84.1565 43.11 84.1565 48.6748V49.7968H74.7549C74.7549 49.4144 74.7549 49.0644 74.7549 48.7127C74.7549 42.6662 74.7765 36.6216 74.7332 30.5751C74.726 29.5415 74.5348 28.4826 74.2534 27.4833C73.7429 25.6686 72.5452 24.4078 70.6529 24.1119C68.6813 23.8035 66.9893 24.4835 65.7267 26.0817C64.4622 27.6835 63.995 29.5577 63.9896 31.5546C63.9733 37.2403 63.9841 42.9242 63.9841 48.6099C63.9841 48.9688 63.9841 49.3278 63.9841 49.7734H54.4941V15.5329Z" fill="#FF697F"/>
<path d="M50.7673 34.8971H27.4454C27.7899 38.0773 30.2396 40.9454 33.0139 41.5641C35.909 42.2099 39.3832 41.0825 40.857 37.7814C43.9686 38.7645 47.091 39.7512 50.4047 40.7974C49.9339 41.6885 49.5605 42.5598 49.0446 43.3373C46.485 47.2083 42.7943 49.4 38.3298 50.3037C33.4468 51.2922 28.8326 50.5598 24.6946 47.6773C20.6485 44.8597 18.4695 40.8353 17.7245 36.0407C17.0589 31.7602 17.5441 27.5897 19.5013 23.6664C22.6183 17.4197 29.4224 13.9707 36.3744 14.7915C45.3521 15.8503 49.9249 23.3038 50.6338 29.3954C50.7655 30.5282 50.852 31.6682 50.8971 32.8064C50.9224 33.4594 50.8214 34.116 50.7691 34.8953L50.7673 34.8971ZM40.8083 29.2835C40.3753 26.1106 37.5289 23.6754 34.2964 23.67C31.1469 23.6646 28.1742 26.1809 27.7286 29.2835H40.8083Z" fill="#FF697F"/>
<path d="M4.7404 15.5545H14.2989C14.317 15.9044 14.3477 16.1949 14.3477 16.4853C14.3621 26.0492 14.3837 35.615 14.3783 45.179C14.3783 48.1246 14.3747 51.0757 14.2358 54.016C14.0049 58.8863 10.1519 63.4356 5.41684 64.5396C5.15709 64.6009 4.67907 64.4638 4.55641 64.2636C3.03216 61.7851 1.55301 59.276 0.0666473 56.7741C0.0251589 56.7037 0.0269628 56.6063 0.00170898 56.4836C0.225385 56.3898 0.436435 56.2906 0.654699 56.2131C3.35144 55.2444 4.7404 53.2872 4.7404 50.4101C4.74401 39.1902 4.7404 27.9703 4.7404 16.7523C4.7404 16.3987 4.7404 16.0433 4.7404 15.5545Z" fill="#FF697F"/>
<path d="M9.62895 0.422077C13.0039 0.425685 15.4752 3.00337 15.4644 6.50463C15.4536 9.96259 12.939 12.5078 9.52974 12.5078C6.12769 12.5078 3.66004 9.93012 3.64922 6.36212C3.63659 2.93663 6.17279 0.41847 9.62895 0.422077Z" fill="#FF697F"/>
</g>
<path d="M127.055 0L138.648 20.0562H139.144L150.862 0H168.035L148.878 31.7428L168.655 63.4855H151.048L139.144 43.2123H138.648L126.745 63.4855H109.261L128.946 31.7428L109.757 0H127.055Z" fill="url(#paint0_linear_1221_4715)"/>
<path d="M149.966 56.0137C150.112 56.0137 150.23 56.1325 150.231 56.2783C150.231 56.4 150.148 56.5013 150.036 56.5322V57.9238L152.863 60.751V63.3496H153.025V63.4854H152.56V63.3496H152.722V60.8086L149.896 57.9824V56.5322C149.784 56.5012 149.701 56.3999 149.701 56.2783C149.702 56.1326 149.82 56.0138 149.966 56.0137ZM143.004 42.375C143.208 42.3753 143.374 42.5409 143.374 42.7451C143.374 42.9157 143.259 43.0574 143.102 43.1006V49.2012L146.506 52.6065H150.235L156.501 58.874L156.53 58.9033V63.4854H156.332V58.9854L150.154 52.8037H146.425L142.905 49.2822V43.1006C142.748 43.057 142.633 42.9153 142.633 42.7451C142.633 42.5407 142.8 42.375 143.004 42.375ZM145.193 41.8194C145.397 41.8194 145.564 41.9858 145.564 42.1904C145.564 42.3609 145.448 42.5026 145.291 42.5459V44.4795L150.649 49.8389H155.295L160.399 54.9444L160.428 54.9736V59.9317L163.98 63.4854H163.701L160.26 60.043L160.231 60.0137V55.0547L155.213 50.0361H150.567L145.122 44.5899L145.094 44.5606V42.5459C144.938 42.5025 144.823 42.3607 144.823 42.1904C144.823 41.9859 144.988 41.8195 145.193 41.8194ZM133.713 41.6738C133.918 41.6738 134.083 41.8395 134.083 42.044C134.083 42.214 133.969 42.3557 133.813 42.3994V44.4151L133.783 44.4434L128.339 49.8897H123.693L118.676 54.9092V59.8672L118.647 59.8965L115.059 63.4854H114.781L118.479 59.7861V54.8272L118.507 54.7988L123.612 49.6924H128.258L133.615 44.333V42.3994C133.459 42.3563 133.343 42.2146 133.343 42.044C133.343 41.8395 133.509 41.6739 133.713 41.6738ZM133.989 51.1485L132.482 52.6572H128.753L122.573 58.8389V63.4854H122.376V58.7569L122.406 58.7285L128.671 52.461H132.4L134.385 50.4736L133.989 51.1485ZM128.94 55.8682C129.086 55.8682 129.204 55.9868 129.204 56.1328C129.204 56.2546 129.122 56.3559 129.01 56.3867V57.836L126.184 60.6631V63.2031H126.346V63.4854H125.882V63.2031H126.043V60.6045L128.869 57.7774V56.3858C128.758 56.3546 128.675 56.2542 128.675 56.1328C128.675 55.987 128.794 55.8684 128.94 55.8682ZM150.234 50.4238C150.337 50.321 150.504 50.3209 150.608 50.4238C150.694 50.5099 150.707 50.6403 150.65 50.7412L151.599 51.6914H155.273L159.276 55.6953V61.544H159.438V62.0088H158.974V61.544H159.135V55.7539L155.214 51.832H151.541L150.549 50.8399C150.448 50.8966 150.32 50.8844 150.234 50.7988C150.13 50.6955 150.13 50.5271 150.234 50.4238ZM161.477 58.6338C161.58 58.5307 161.749 58.5307 161.852 58.6338C161.937 58.7196 161.95 58.8495 161.894 58.9502L164.526 61.583H166.932V61.4209H167.37L167.396 61.461V61.8858H166.932V61.7236H164.467L161.794 59.0498C161.693 59.1073 161.563 59.094 161.477 59.0078C161.374 58.9045 161.374 58.737 161.477 58.6338ZM128.299 50.2783C128.402 50.1752 128.57 50.1752 128.673 50.2783C128.776 50.3817 128.776 50.549 128.673 50.6524C128.587 50.7385 128.457 50.7512 128.356 50.6934L127.365 51.6856H123.692L119.772 55.6074V61.3975H119.934V61.8623H119.469V61.3975H119.63V55.5488L123.634 51.5449H127.307L128.256 50.5938C128.2 50.4931 128.214 50.364 128.299 50.2783ZM150.022 54.3496L149.906 54.4639L154.407 58.9668V61.3418C154.519 61.3727 154.602 61.4742 154.602 61.5957C154.602 61.7419 154.483 61.8604 154.337 61.8604C154.191 61.8603 154.073 61.7419 154.073 61.5957C154.073 61.4742 154.155 61.3727 154.267 61.3418V59.0244L149.807 54.5635L149.694 54.6787L149.365 54.3496L149.694 54.0215L150.022 54.3496ZM117.055 58.4873C117.158 58.3843 117.326 58.3845 117.429 58.4873C117.532 58.5906 117.532 58.7589 117.429 58.8623C117.343 58.9483 117.212 58.9611 117.112 58.9033L114.44 61.5772H111.975V61.7393H111.51V61.2744H111.975V61.4365H114.381L117.012 58.8037C116.956 58.703 116.969 58.573 117.055 58.4873ZM129.541 54.2041L129.213 54.5322L129.098 54.418L124.639 58.8789V61.1953C124.751 61.226 124.833 61.3284 124.833 61.4502C124.833 61.5962 124.715 61.7149 124.569 61.7149C124.423 61.7146 124.304 61.5961 124.304 61.4502C124.304 61.3287 124.387 61.2263 124.498 61.1953V58.8203L128.998 54.3184L128.884 54.2041L129.213 53.875L129.541 54.2041ZM149.798 61.1787L149.913 61.0645L150.241 61.3926L149.976 61.6582L149.547 60.9277L149.798 61.1787ZM154.228 53.0137L154.112 53.1279L157.833 56.8496V60.4531C157.945 60.484 158.027 60.5864 158.028 60.708C158.028 60.8542 157.909 60.9727 157.763 60.9727C157.617 60.9727 157.498 60.8542 157.498 60.708C157.498 60.5864 157.581 60.484 157.693 60.4531V56.9082L154.013 53.2276L153.899 53.3418L153.571 53.0137L153.899 52.6846L154.228 53.0137ZM125.335 52.8672L125.007 53.1963L124.893 53.0811L121.214 56.7617V60.3076C121.326 60.3386 121.408 60.4402 121.408 60.5615C121.408 60.7076 121.29 60.826 121.144 60.8262C120.998 60.8262 120.879 60.7077 120.879 60.5615C120.879 60.4403 120.961 60.3387 121.073 60.3076V56.7041L124.793 52.9815L124.679 52.8672L125.007 52.5391L125.335 52.8672ZM162.348 57.4736L162.233 57.5869L164.762 60.1172H166.558L166.646 60.2578H164.703L162.133 57.6865L162.019 57.8018L161.691 57.4736L162.019 57.1445L162.348 57.4736ZM117.215 57.3272L116.887 57.6563L116.772 57.541L114.202 60.1123H111.355L111.442 59.9717H114.144L116.672 57.4414L116.559 57.3272L116.887 56.999L117.215 57.3272ZM146.688 53.6817C146.791 53.5786 146.958 53.5788 147.062 53.6817C147.148 53.7675 147.161 53.8972 147.104 53.9981L148.49 55.3848V59.125L148.349 58.8858V55.4424L147.004 54.0977C146.903 54.1548 146.774 54.1417 146.688 54.0557C146.585 53.9523 146.585 53.7849 146.688 53.6817ZM121.781 49.46L121.451 49.7881L121.337 49.6738L112.634 58.3809H112.428L112.516 58.2393H112.575L121.238 49.5742L121.123 49.46L121.451 49.1319L121.781 49.46ZM131.845 53.5352C131.948 53.4323 132.116 53.4325 132.219 53.5352C132.322 53.6385 132.322 53.8068 132.219 53.9102C132.133 53.9963 132.003 54.009 131.902 53.9512L130.558 55.2969V56.9932L130.417 57.2324V55.2383L131.802 53.8526C131.745 53.7517 131.759 53.621 131.845 53.5352ZM147.107 56.0967V56.7705L146.965 56.5293V56.1543L146.431 55.6201L146.147 55.1367L147.107 56.0967ZM157.782 49.6065L157.667 49.7207L164.072 56.126L164.401 56.6553L157.568 49.8203L157.453 49.9346L157.125 49.6065L157.453 49.2774L157.782 49.6065ZM130.621 40.7998C130.766 40.6557 131 40.6556 131.145 40.7998C131.289 40.9445 131.289 41.1795 131.145 41.3242C131.024 41.4449 130.842 41.4635 130.7 41.3828L125.445 46.6406H122.183L115.666 53.1582L116.119 52.4268L122.102 46.4434H125.364L130.562 41.2432C130.482 41.1019 130.501 40.9201 130.621 40.7998ZM144.246 39.5401C144.392 39.5401 144.511 39.6589 144.511 39.8047C144.511 39.9263 144.428 40.0276 144.317 40.0586V48.6797L146.584 50.9473H148.575V50.7852H149.04V51.25H148.575V51.0879H146.526L144.176 48.7383V40.0586C144.064 40.0276 143.982 39.9264 143.982 39.8047C143.982 39.6588 144.1 39.5401 144.246 39.5401ZM143.836 51.2002L143.668 50.9151H143.836V51.2002ZM134.66 39.3945C134.806 39.3945 134.925 39.5132 134.925 39.6592C134.925 39.7808 134.843 39.8822 134.731 39.9131V48.5918L132.381 50.9424H130.33V51.1045H129.866V50.6397H130.33V50.8008H132.323L134.59 48.5332V39.9121C134.479 39.8811 134.396 39.7806 134.396 39.6592C134.396 39.5132 134.514 39.3946 134.66 39.3945ZM147.762 40.9463C147.907 40.8019 148.141 40.802 148.285 40.9463C148.406 41.0667 148.424 41.2483 148.344 41.3897L153.543 46.5899H156.805L160.322 50.1074L160.782 50.8486L156.723 46.7871H153.461L148.205 41.5293C148.064 41.6094 147.882 41.591 147.762 41.4707C147.617 41.3259 147.617 41.091 147.762 40.9463ZM145.533 46.4883C145.637 46.3855 145.804 46.3855 145.907 46.4883C145.993 46.5743 146.007 46.7048 145.949 46.8057L148.761 49.6172L148.875 49.5029L149.204 49.832L148.875 50.1602L148.547 49.832L148.661 49.7168L145.85 46.9043C145.749 46.9616 145.62 46.9492 145.533 46.8633C145.43 46.7599 145.43 46.5916 145.533 46.4883ZM132.998 46.3428C133.102 46.2397 133.269 46.2397 133.372 46.3428C133.476 46.4461 133.475 46.6134 133.372 46.7168C133.286 46.8029 133.156 46.8165 133.055 46.7588L130.244 49.5703L130.359 49.6856L130.031 50.0137L129.701 49.6856L130.031 49.3565L130.145 49.4707L132.956 46.6582C132.9 46.5575 132.913 46.4285 132.998 46.3428ZM146.836 38.2969C147.041 38.2969 147.207 38.4634 147.207 38.668C147.207 38.8382 147.092 38.9799 146.936 39.0235V43.4883L151.589 48.1445H155.394C155.437 47.9877 155.58 47.8721 155.75 47.8721C155.955 47.8721 156.12 48.0378 156.12 48.2422C156.12 48.447 155.955 48.6133 155.75 48.6133C155.58 48.6133 155.437 48.4978 155.394 48.3408H151.508L146.739 43.5703V39.0235C146.582 38.9802 146.466 38.8385 146.466 38.668C146.466 38.4635 146.632 38.2971 146.836 38.2969ZM132.07 38.1514C132.274 38.1514 132.44 38.317 132.441 38.5215C132.441 38.692 132.325 38.8337 132.168 38.877V43.4238L127.4 48.1953H123.511C123.468 48.3517 123.327 48.4667 123.156 48.4668C122.952 48.4668 122.786 48.3013 122.785 48.0967C122.786 47.8921 122.952 47.7256 123.156 47.7256C123.327 47.7257 123.469 47.8416 123.512 47.9981H127.318L131.972 43.3428V38.877C131.815 38.8338 131.699 38.6921 131.699 38.5215C131.7 38.3171 131.865 38.1516 132.07 38.1514ZM135.904 42.2285C136.108 42.2288 136.274 42.3952 136.274 42.5996C136.274 42.77 136.158 42.9109 136.001 42.9541V47.7227L135.805 48.0567V42.9541C135.648 42.9108 135.533 42.7699 135.532 42.5996C135.533 42.395 135.699 42.2285 135.904 42.2285ZM141.82 45.2236C142.024 45.2238 142.19 45.3902 142.19 45.5947C142.19 45.765 142.075 45.9068 141.918 45.9502V47.9336L141.721 47.5977V45.9502C141.564 45.9069 141.449 45.7651 141.448 45.5947C141.449 45.3902 141.615 45.2237 141.82 45.2236ZM119.865 46.6856L119.536 47.0137L119.499 46.9766L119.751 46.5713L119.865 46.6856ZM137.087 45.0781C137.238 45.0781 137.366 45.1687 137.424 45.2979L136.989 46.041V45.8037C136.832 45.7603 136.717 45.6186 136.717 45.4483C136.717 45.2437 136.883 45.0782 137.087 45.0781ZM151.76 41.957C151.905 41.8125 152.14 41.8125 152.284 41.957C152.405 42.0776 152.422 42.2591 152.342 42.4004L155.074 45.1328H157.222L157.345 45.3301H154.992L152.203 42.5401C152.062 42.6199 151.88 42.6018 151.76 42.4815C151.616 42.3367 151.616 42.1018 151.76 41.957ZM126.622 41.8106C126.767 41.666 127.002 41.6661 127.147 41.8106C127.291 41.9553 127.291 42.1902 127.147 42.335C127.026 42.4557 126.844 42.4741 126.702 42.3936L123.914 45.1836H120.613L120.734 44.9873H123.833L126.564 42.2539C126.484 42.1127 126.502 41.9309 126.622 41.8106ZM153.939 41.2207C154.083 41.0762 154.317 41.0762 154.462 41.2207C154.583 41.3411 154.602 41.5228 154.522 41.6641L155.747 42.8906H155.825L155.948 43.0879H155.665L154.382 41.8037C154.241 41.8837 154.059 41.8646 153.939 41.7442C153.794 41.5994 153.794 41.3654 153.939 41.2207ZM124.444 41.0742C124.588 40.9297 124.823 40.9297 124.968 41.0742C125.112 41.219 125.112 41.454 124.968 41.5986C124.847 41.7192 124.665 41.7375 124.524 41.6572L123.24 42.9414H122.002L122.125 42.7442H123.159L124.384 41.5186C124.304 41.3772 124.323 41.1947 124.444 41.0742ZM125.247 37.708C125.267 37.753 125.278 37.8023 125.279 37.8545C125.279 38.0524 125.123 38.2129 124.928 38.2236L125.247 37.708ZM152.829 25.1963L151.668 26.3584C151.748 26.4996 151.73 26.6812 151.61 26.8018C151.465 26.9465 151.23 26.9465 151.085 26.8018C150.941 26.657 150.941 26.423 151.085 26.2783C151.206 26.1581 151.387 26.1391 151.529 26.2188L153.253 24.4942L152.829 25.1963ZM124.339 18.5986C124.544 18.5986 124.71 18.7651 124.71 18.9697C124.71 19.1405 124.594 19.2823 124.437 19.3252V23.1319L127.377 26.0733C127.519 25.9929 127.701 26.0114 127.822 26.1319C127.966 26.2766 127.966 26.5115 127.822 26.6563C127.677 26.801 127.442 26.801 127.297 26.6563C127.177 26.5358 127.158 26.3532 127.238 26.2119L124.24 23.2129V19.3252C124.084 19.2818 123.969 19.14 123.969 18.9697C123.969 18.7652 124.135 18.5988 124.339 18.5986ZM125.496 26.0332C125.562 26.048 125.625 26.0806 125.676 26.1319C125.772 26.2282 125.803 26.3643 125.771 26.4873L125.496 26.0332ZM162.578 4.62111V8.18459L153.001 17.7656V22.2725L150.66 24.6123C150.741 24.7536 150.722 24.9359 150.602 25.0567C150.457 25.2014 150.222 25.2014 150.077 25.0567C149.933 24.9119 149.933 24.6778 150.077 24.5332C150.198 24.413 150.38 24.394 150.521 24.4736L152.804 22.1904V17.6836L162.381 8.10353V4.54005L166.918 1.52588e-05H167.198L162.578 4.62111ZM116.525 4.39357V7.95705L126.102 17.5371V22.044L128.384 24.3272C128.525 24.2468 128.708 24.2664 128.828 24.3867C128.973 24.5314 128.973 24.7664 128.828 24.9111C128.684 25.0555 128.45 25.0555 128.305 24.9111C128.184 24.7904 128.165 24.6072 128.245 24.4658L125.906 22.126V17.6192L116.328 8.03908V4.4756L111.855 1.52588e-05H112.132L116.525 4.39357ZM145.315 13.3467L146.972 15.0039V22.9063C147.129 22.9494 147.244 23.0922 147.244 23.2627C147.244 23.4674 147.078 23.6328 146.873 23.6328C146.669 23.6326 146.503 23.4673 146.503 23.2627C146.503 23.0922 146.619 22.9493 146.776 22.9063V15.086L145.118 13.4277V9.83302L145.315 9.49709V13.3467ZM133.788 11.6455V13.2822L132.131 14.9395V22.7598C132.288 22.8028 132.403 22.9457 132.404 23.1162C132.404 23.3209 132.238 23.4871 132.033 23.4873C131.829 23.4873 131.662 23.321 131.662 23.1162C131.663 22.9461 131.778 22.8032 131.934 22.7598V14.8584L133.591 13.2002V11.3047L133.788 11.6455ZM150.461 19.6201H150.299V21.5156L149.59 22.2246C149.647 22.3255 149.634 22.4549 149.548 22.541C149.445 22.6444 149.277 22.6444 149.174 22.541C149.071 22.4376 149.071 22.2702 149.174 22.167C149.26 22.0814 149.39 22.0676 149.49 22.124L150.157 21.458V19.6201H149.996V19.1553H150.461V19.6201ZM154.568 18.7451C154.772 18.7452 154.937 18.9109 154.938 19.1152C154.938 19.2855 154.823 19.4273 154.666 19.4707V22.1533L154.47 22.4785V19.4707C154.313 19.4277 154.197 19.286 154.197 19.1152C154.197 18.9109 154.363 18.7451 154.568 18.7451ZM128.91 19.4736H128.748V21.3115L129.414 21.9785C129.515 21.9213 129.646 21.9356 129.732 22.0215C129.835 22.1248 129.835 22.2922 129.732 22.3955C129.628 22.4988 129.461 22.4987 129.358 22.3955C129.272 22.3093 129.257 22.1781 129.315 22.0772L128.608 21.3701V19.4736H128.446V19.0098H128.91V19.4736ZM153.591 0.139664C153.796 0.139746 153.961 0.30621 153.961 0.510757C153.961 0.681091 153.846 0.822819 153.69 0.866226V4.08107L156.191 6.58205V12.0811L147.816 20.459V21.6592C147.972 21.7024 148.088 21.8452 148.088 22.0156C148.088 22.2204 147.922 22.3867 147.717 22.3867C147.512 22.3866 147.347 22.2203 147.347 22.0156C147.347 21.8454 147.462 21.7025 147.618 21.6592V20.377L155.993 12V6.66408L153.492 4.16212V0.866226C153.336 0.822896 153.22 0.681175 153.22 0.510757C153.22 0.306169 153.387 0.139679 153.591 0.139664ZM125.37 1.52588e-05C125.548 0.0268694 125.685 0.178796 125.686 0.364273C125.686 0.534415 125.57 0.676159 125.414 0.719742V4.01662L122.913 6.51759V11.8535L131.288 20.2305V21.5137C131.445 21.5571 131.56 21.6991 131.56 21.8692C131.56 22.0738 131.394 22.24 131.19 22.2402C130.985 22.2402 130.819 22.0739 130.819 21.8692C130.819 21.6988 130.934 21.5558 131.091 21.5127V20.3125L122.716 11.9346V6.43654L125.217 3.93459V0.719742C125.06 0.676534 124.945 0.534822 124.945 0.364273C124.945 0.17894 125.081 0.0270442 125.259 1.52588e-05H125.37ZM151.527 18.3233C151.731 18.3233 151.897 18.4889 151.898 18.6934C151.898 18.8635 151.782 19.0053 151.626 19.0488V21.127C151.782 21.1704 151.897 21.3124 151.898 21.4824C151.898 21.6872 151.731 21.8535 151.527 21.8535C151.322 21.8533 151.156 21.687 151.156 21.4824C151.157 21.312 151.272 21.169 151.429 21.126V19.0488C151.272 19.0056 151.156 18.8639 151.156 18.6934C151.157 18.4891 151.322 18.3235 151.527 18.3233ZM127.38 18.1768C127.585 18.1769 127.75 18.3433 127.75 18.5479C127.75 18.7184 127.635 18.8603 127.478 18.9033V20.9805C127.635 21.0235 127.75 21.1663 127.75 21.3369C127.75 21.5415 127.585 21.7069 127.38 21.707C127.176 21.707 127.009 21.5415 127.009 21.3369C127.009 21.1665 127.125 21.0237 127.281 20.9805V18.9033C127.125 18.8601 127.009 18.7182 127.009 18.5479C127.009 18.3433 127.176 18.1768 127.38 18.1768ZM122.855 19.0469V21.6631L122.657 21.3369V19.1289L119.28 15.75L118.854 15.0449L122.855 19.0469ZM144.101 13.1524V20.8154C144.258 20.8583 144.374 21.0012 144.374 21.1719C144.374 21.3766 144.208 21.542 144.003 21.542C143.799 21.5419 143.633 21.3765 143.633 21.1719C143.633 21.0016 143.748 20.8587 143.905 20.8154V13.2344L143.416 12.7461L143.519 12.5703L144.101 13.1524ZM135.002 13.7451V20.6699C135.158 20.7133 135.273 20.8554 135.274 21.0254C135.274 21.23 135.108 21.3963 134.904 21.3965C134.699 21.3965 134.532 21.2301 134.532 21.0254C134.533 20.8551 134.648 20.7131 134.805 20.6699V13.4043L135.002 13.7451ZM156.64 18.8819L156.248 19.2744V19.5313L156.052 19.8565V19.1934L157.063 18.1817L156.64 18.8819ZM145.135 15.6367C145.281 15.6367 145.399 15.7555 145.4 15.9014C145.4 16.0232 145.317 16.1244 145.205 16.1553V18.7383L145.656 19.1885L145.771 19.0733L146.099 19.4024L145.771 19.7305L145.442 19.4024L145.556 19.2871L145.065 18.7959V16.1553C144.953 16.1242 144.87 16.0229 144.87 15.9014C144.871 15.7556 144.989 15.637 145.135 15.6367ZM133.772 15.4912C133.918 15.4912 134.036 15.6099 134.036 15.7559C134.036 15.8773 133.954 15.9778 133.842 16.0088V18.6504L133.351 19.1416L133.465 19.2559L133.137 19.585L132.808 19.2559L133.137 18.9277L133.251 19.042L133.701 18.5918V16.0088C133.59 15.9778 133.507 15.8773 133.507 15.7559C133.507 15.6099 133.626 15.4913 133.772 15.4912ZM142.931 14.5527V17.9697H143.093V18.4346H142.628V17.9697H142.79V14.6113L142.497 14.3184L142.571 14.1924L142.931 14.5527ZM136.116 15.6729V17.8233H136.279V18.2881H135.814V17.8233H135.976V15.4297L136.116 15.6729ZM150.736 0.295914C150.94 0.295926 151.105 0.461576 151.106 0.666031C151.106 0.836381 150.991 0.978107 150.834 1.0215V9.97951L148.171 12.6436V17.5596C148.327 17.6031 148.442 17.746 148.443 17.916C148.443 18.1208 148.276 18.2871 148.072 18.2871C147.867 18.287 147.701 18.1207 147.701 17.916C147.702 17.7454 147.817 17.6026 147.974 17.5596V12.5625L150.637 9.89748V1.0215C150.525 0.990532 150.436 0.9095 150.393 0.803726L150.687 0.300797C150.703 0.29868 150.719 0.295915 150.736 0.295914ZM128.27 2.09962V9.75197L130.933 12.416V17.4131C131.089 17.4562 131.205 17.5992 131.205 17.7695C131.205 17.9743 131.039 18.1406 130.834 18.1406C130.63 18.1405 130.464 17.9742 130.464 17.7695C130.464 17.599 130.58 17.456 130.737 17.4131V12.4971L128.073 9.83302V1.75783L128.27 2.09962ZM152.29 13.4922L151.962 13.8203L151.847 13.7051L149.778 15.7764V16.6494C149.889 16.6805 149.971 16.783 149.971 16.9043C149.971 17.0504 149.852 17.169 149.706 17.169C149.56 17.1688 149.442 17.0503 149.442 16.9043C149.442 16.7824 149.525 16.68 149.637 16.6494V15.7188L151.748 13.6065L151.634 13.4922L151.962 13.1631L152.29 13.4922ZM127.273 13.3457L127.158 13.46L129.27 15.5723V16.5029C129.382 16.5336 129.464 16.6361 129.464 16.7578C129.464 16.904 129.346 17.0225 129.199 17.0225C129.054 17.0222 128.935 16.9038 128.935 16.7578C128.935 16.6364 129.018 16.5339 129.129 16.5029V15.6309L127.059 13.5596L126.945 13.6748L126.616 13.3457L126.945 13.0176L127.273 13.3457ZM159.317 14.4473L157.32 16.4444L157.436 16.5606L157.107 16.8887L156.779 16.5606L157.107 16.2315L157.22 16.3447L159.619 13.9444L159.317 14.4473ZM117.621 12.1348L117.642 12.1553L121.685 16.1992L121.799 16.086L122.128 16.4141L121.799 16.7432L121.471 16.4141L121.585 16.2988L117.563 12.2754H117.18L117.095 12.1348H117.621ZM150.62 11.9736C150.724 11.8706 150.891 11.8707 150.994 11.9736C151.098 12.0769 151.098 12.2443 150.994 12.3477C150.908 12.434 150.778 12.4474 150.677 12.3897L149.33 13.7373L149.445 13.8516L149.116 14.1807L148.788 13.8516L149.116 13.5235L149.231 13.6377L150.577 12.2901C150.521 12.1893 150.535 12.0594 150.62 11.9736ZM127.912 11.8272C128.016 11.7244 128.183 11.7242 128.286 11.8272C128.372 11.9131 128.384 12.0427 128.327 12.1436L129.675 13.4912L129.789 13.377L130.118 13.7051L129.789 14.0342L129.461 13.7051L129.575 13.5899L128.229 12.2432C128.128 12.3005 127.998 12.288 127.912 12.2022C127.809 12.0988 127.809 11.9305 127.912 11.8272ZM146.167 10.1533L147.121 11.1084V13.4453C147.233 13.4761 147.316 13.5785 147.316 13.7002C147.315 13.8462 147.197 13.9649 147.051 13.9649C146.905 13.9646 146.787 13.846 146.786 13.7002C146.787 13.5788 146.869 13.4763 146.981 13.4453V11.167L146.027 10.2119V8.27834L146.167 8.03712V10.1533ZM132.876 10.0684L131.926 11.0205V13.2988C132.038 13.3298 132.12 13.4322 132.12 13.5537C132.12 13.6997 132.002 13.8182 131.856 13.8184C131.71 13.8184 131.591 13.6998 131.591 13.5537C131.591 13.4323 131.673 13.3299 131.784 13.2988V10.9619L132.74 10.0078V9.83107L132.876 10.0684ZM152.067 2.92287C152.271 2.92287 152.437 3.08855 152.438 3.29298C152.438 3.46342 152.322 3.60514 152.165 3.64845V11.4668L152.968 12.2705C153.109 12.1899 153.293 12.2096 153.413 12.3301C153.558 12.4748 153.558 12.7097 153.413 12.8545C153.269 12.9992 153.034 12.9992 152.889 12.8545C152.769 12.7339 152.75 12.5515 152.83 12.4102L151.968 11.5479V3.64845C151.812 3.60497 151.697 3.46323 151.697 3.29298C151.697 3.08864 151.862 2.92301 152.067 2.92287ZM126.84 2.77638C127.045 2.77655 127.21 2.94298 127.21 3.14748C127.21 3.31787 127.094 3.4588 126.938 3.50197V11.4024L126.076 12.2637C126.157 12.4051 126.137 12.5874 126.017 12.708C125.872 12.8527 125.638 12.8527 125.493 12.708C125.349 12.5632 125.349 12.3283 125.493 12.1836C125.614 12.064 125.795 12.0449 125.936 12.124L126.74 11.3203V3.50197C126.585 3.45836 126.469 3.3174 126.469 3.14748C126.469 2.94289 126.636 2.7764 126.84 2.77638ZM153.507 5.54396L153.392 5.65822L154.416 6.68263V10.8994C154.528 10.9303 154.61 11.0327 154.611 11.1543C154.611 11.3004 154.492 11.4189 154.346 11.419C154.2 11.4189 154.081 11.3004 154.081 11.1543C154.081 11.0327 154.164 10.9303 154.276 10.8994V6.74123L153.292 5.75783L153.178 5.87306L152.85 5.54396L153.178 5.21584L153.507 5.54396ZM126.057 5.39748L125.728 5.72658L125.614 5.61134L124.631 6.59474V10.7539C124.743 10.7848 124.825 10.8863 124.825 11.0078C124.825 11.154 124.707 11.2725 124.561 11.2725C124.415 11.2725 124.296 11.154 124.296 11.0078C124.296 10.8863 124.379 10.7848 124.49 10.7539V6.53615L125.514 5.51173L125.4 5.39748L125.728 5.06935L126.057 5.39748ZM149.393 2.51564C149.537 2.56633 149.641 2.70265 149.641 2.86427C149.641 3.03461 149.526 3.17637 149.369 3.21974V6.48634L147.808 8.04787V10.3516C147.964 10.3948 148.08 10.5376 148.08 10.708C148.08 10.9127 147.914 11.0781 147.709 11.0781C147.505 11.078 147.339 10.9126 147.339 10.708C147.339 10.5378 147.454 10.3949 147.611 10.3516V7.96681L149.172 6.40431V3.21974C149.118 3.20469 149.069 3.17749 149.028 3.14162L149.393 2.51564ZM129.735 4.6338V6.2588L131.295 7.82033V10.2051C131.452 10.2482 131.567 10.391 131.568 10.5615C131.568 10.7663 131.401 10.9326 131.197 10.9326C130.992 10.9324 130.826 10.7661 130.826 10.5615C130.827 10.3913 130.942 10.2485 131.098 10.2051V7.90138L129.537 6.33986V4.29201L129.735 4.6338ZM115.948 10.0664C116.09 9.98628 116.272 10.0066 116.393 10.127C116.537 10.2717 116.537 10.5056 116.393 10.6504C116.351 10.6919 116.302 10.7206 116.25 10.7383L115.685 9.80177L115.948 10.0664ZM160.953 0.850601C161.098 0.706051 161.333 0.70607 161.478 0.850601C161.622 0.995239 161.622 1.22929 161.478 1.37404C161.357 1.4948 161.175 1.51336 161.033 1.43263L158.883 3.58498V5.18361L157.315 6.75294V9.86232C157.471 9.90552 157.586 10.0485 157.586 10.2188C157.586 10.4235 157.421 10.5898 157.216 10.5899C157.011 10.5898 156.846 10.4235 156.846 10.2188C156.846 10.0485 156.961 9.90548 157.117 9.86232V6.67091L158.686 5.10158V3.50294L160.894 1.29298C160.815 1.15196 160.834 0.970666 160.953 0.850601ZM117.429 0.704117C117.574 0.559612 117.809 0.559601 117.953 0.704117C118.074 0.824432 118.092 1.00622 118.012 1.14748L120.221 3.35744V4.95607L121.789 6.52541V9.71681C121.946 9.76023 122.061 9.90311 122.061 10.0733C122.061 10.2778 121.894 10.4434 121.69 10.4434C121.485 10.4431 121.32 10.2777 121.32 10.0733C121.32 9.90277 121.435 9.75991 121.592 9.71681V6.60646L120.024 5.0381V3.43947L117.872 1.28712C117.731 1.36715 117.549 1.349 117.429 1.22853C117.284 1.08375 117.284 0.848806 117.429 0.704117ZM153.335 8.06447H153.173V9.68556C153.285 9.7164 153.367 9.81882 153.367 9.94044C153.367 10.0865 153.249 10.2051 153.103 10.2051C152.957 10.2051 152.838 10.0865 152.838 9.94044C152.838 9.81882 152.921 9.7164 153.032 9.68556V8.06447H152.87V7.59962H153.335V8.06447ZM126.036 7.91798H125.874V9.54005C125.986 9.57115 126.067 9.6727 126.068 9.79396C126.068 9.94013 125.949 10.0586 125.803 10.0586C125.657 10.0584 125.538 9.94002 125.538 9.79396C125.539 9.67225 125.622 9.57073 125.734 9.54005V7.91798H125.572V7.45314H126.036V7.91798ZM161.681 2.70119C161.784 2.59804 161.952 2.59806 162.055 2.70119C162.158 2.80452 162.158 2.97192 162.055 3.07521C161.969 3.16132 161.839 3.17465 161.738 3.1172L160.365 4.49123V8.36916L159.296 9.43752L159.411 9.55177L159.082 9.88087L158.754 9.55177L159.082 9.22365L159.197 9.33791L160.224 8.31056V4.43263L161.638 3.01662C161.582 2.91589 161.595 2.78686 161.681 2.70119ZM116.852 2.5547C116.955 2.45158 117.123 2.45158 117.226 2.5547C117.312 2.64061 117.325 2.77025 117.268 2.87111L118.684 4.28615V8.16505L119.71 9.19142L119.824 9.07716L120.153 9.40627L119.824 9.73439L119.496 9.40627L119.611 9.29103L118.542 8.22267V4.34474L117.168 2.97072C117.067 3.02789 116.938 3.01474 116.852 2.92873C116.749 2.82535 116.749 2.658 116.852 2.5547ZM146.329 7.81252H146.299L146.329 7.75978V7.81252ZM163.723 6.46486C163.843 6.34473 164.025 6.32574 164.166 6.40529L164.177 6.39357L163.787 7.04005C163.765 7.02568 163.743 7.00906 163.723 6.98927C163.578 6.84449 163.578 6.60955 163.723 6.46486ZM114.74 6.25978C114.881 6.17962 115.063 6.19897 115.184 6.31935C115.328 6.46397 115.328 6.69807 115.184 6.84279C115.039 6.98755 114.804 6.98755 114.659 6.84279C114.539 6.72237 114.52 6.54056 114.6 6.39943L112.139 3.93654L111.712 3.23244L114.74 6.25978ZM156.887 2.8838H156.725V4.22365C156.836 4.25463 156.919 4.35706 156.919 4.47853C156.919 4.6245 156.8 4.74293 156.655 4.74318C156.508 4.74316 156.39 4.62465 156.39 4.47853C156.39 4.35675 156.472 4.25434 156.584 4.22365V2.8838H156.422V2.41896H156.887V2.8838ZM122.485 2.7383H122.323V4.07814C122.435 4.1093 122.517 4.21085 122.517 4.33205C122.517 4.47822 122.398 4.59669 122.252 4.59669C122.106 4.59663 121.988 4.47818 121.988 4.33205C121.988 4.21058 122.07 4.10906 122.182 4.07814V2.7383H122.02V2.27345H122.485V2.7383Z" fill="white"/>
<g clip-path="url(#clip1_1221_4715)">
<path d="M54.4941 15.5329C56.8319 15.5329 59.1084 15.5166 61.3848 15.5581C61.6067 15.5617 61.9206 15.8882 62.0234 16.1371C62.5663 17.4305 63.0552 18.7473 63.6162 20.1958C65.7808 16.3879 69.062 14.6941 73.2108 14.7013C77.4985 14.7085 80.5001 16.8803 82.5006 20.746C82.8758 20.1814 83.1554 19.6997 83.4909 19.2632C86.1497 15.7998 89.7358 14.3279 93.9892 14.7734C98.7333 15.2713 101.677 18.2043 103.167 22.5714C103.739 24.2472 104.042 26.0907 104.067 27.8621C104.166 34.9891 104.111 42.1197 104.109 49.2484C104.109 49.3982 104.091 49.5461 104.075 49.7734H94.534V48.7452C94.534 42.6698 94.5556 36.5927 94.5141 30.5174C94.5069 29.482 94.3518 28.4123 94.0614 27.4202C93.5094 25.5424 92.2539 24.2869 90.2481 24.0758C88.1646 23.8558 86.5935 24.819 85.4859 26.5435C84.4235 28.194 84.1637 30.0664 84.1601 31.9803C84.1475 37.5451 84.1565 43.11 84.1565 48.6748V49.7968H74.7549C74.7549 49.4144 74.7549 49.0644 74.7549 48.7127C74.7549 42.6662 74.7765 36.6216 74.7332 30.5751C74.726 29.5415 74.5348 28.4826 74.2534 27.4833C73.7429 25.6686 72.5452 24.4078 70.6529 24.1119C68.6813 23.8035 66.9893 24.4835 65.7267 26.0817C64.4622 27.6835 63.995 29.5577 63.9896 31.5546C63.9733 37.2403 63.9841 42.9242 63.9841 48.6099C63.9841 48.9688 63.9841 49.3278 63.9841 49.7734H54.4941V15.5329Z" fill="#FF697F"/>
<path d="M50.7673 34.8971H27.4454C27.7899 38.0773 30.2396 40.9454 33.0139 41.5641C35.909 42.2099 39.3832 41.0825 40.857 37.7814C43.9686 38.7645 47.091 39.7512 50.4047 40.7974C49.9339 41.6885 49.5605 42.5598 49.0446 43.3373C46.485 47.2083 42.7943 49.4 38.3298 50.3037C33.4468 51.2922 28.8326 50.5598 24.6946 47.6773C20.6485 44.8597 18.4695 40.8353 17.7245 36.0407C17.0589 31.7602 17.5441 27.5897 19.5013 23.6664C22.6183 17.4197 29.4224 13.9707 36.3744 14.7915C45.3521 15.8503 49.9249 23.3038 50.6338 29.3954C50.7655 30.5282 50.852 31.6682 50.8971 32.8064C50.9224 33.4594 50.8214 34.116 50.7691 34.8953L50.7673 34.8971ZM40.8083 29.2835C40.3753 26.1106 37.5289 23.6754 34.2964 23.67C31.1469 23.6646 28.1742 26.1809 27.7286 29.2835H40.8083Z" fill="#FF697F"/>
<path d="M4.7404 15.5545H14.2989C14.317 15.9044 14.3477 16.1949 14.3477 16.4853C14.3621 26.0492 14.3837 35.615 14.3783 45.179C14.3783 48.1246 14.3747 51.0757 14.2358 54.016C14.0049 58.8863 10.1519 63.4356 5.41684 64.5396C5.15709 64.6009 4.67907 64.4638 4.55641 64.2636C3.03216 61.7851 1.55301 59.276 0.0666473 56.7741C0.0251589 56.7037 0.0269628 56.6063 0.00170898 56.4836C0.225385 56.3898 0.436435 56.2906 0.654699 56.2131C3.35144 55.2444 4.7404 53.2872 4.7404 50.4101C4.74401 39.1902 4.7404 27.9703 4.7404 16.7523C4.7404 16.3987 4.7404 16.0433 4.7404 15.5545Z" fill="#FF697F"/>
<path d="M9.62895 0.422077C13.0039 0.425685 15.4752 3.00337 15.4644 6.50463C15.4536 9.96259 12.939 12.5078 9.52974 12.5078C6.12769 12.5078 3.66004 9.93012 3.64922 6.36212C3.63659 2.93663 6.17279 0.41847 9.62895 0.422077Z" fill="#FF697F"/>
</g>
<defs>
<linearGradient id="paint0_linear_1221_4715" x1="138.958" y1="0" x2="138.958" y2="63.4855" gradientUnits="userSpaceOnUse">
<stop stop-color="#FF697F"/>
<stop offset="1" stop-color="#AB53BF"/>
</linearGradient>
<clipPath id="clip0_1221_4715">
<rect width="104.127" height="64.1337" fill="white" transform="translate(0 0.422073)"/>
</clipPath>
<clipPath id="clip1_1221_4715">
<rect width="104.127" height="64.1337" fill="white" transform="translate(0 0.422073)"/>
</clipPath>
</defs>
</svg>
